<svg width="50" height="50" viewBox="0 0 50 50" fill="none" xmlns="http://www.w3.org/2000/svg">
<path d="M42.1962 50C39.9133 50 37.773 49.0067 36.2968 47.3C32.812 49.0671 28.9266 50 25.0027 50C11.2172 50 0 38.7828 0 25.0027C0 11.2227 11.2172 0 25.0027 0C38.7828 0 49.9945 11.2501 50 25.0741L49.4732 25.0796L50 25.0741V25.0796V42.1962C50 46.4987 46.4987 50 42.1962 50ZM36.9553 44.4463L37.5151 45.2914C38.5578 46.8664 40.3084 47.8049 42.1908 47.8049C45.2859 47.8049 47.7994 45.2859 47.7994 42.1962V25.0851C47.7994 12.463 37.57 2.20064 24.9973 2.20064C12.4245 2.19515 2.19515 12.4245 2.19515 25.0027C2.19515 37.5809 12.4245 47.8103 25.0027 47.8103C28.8717 47.8103 32.7022 46.817 36.0718 44.9402L36.9553 44.4463Z" fill="white"/>
<path fill-rule="evenodd" clip-rule="evenodd" d="M24.0203 44.298C34.6723 44.7096 43.645 36.39 44.0456 25.7216C44.084 24.7996 44.0565 23.9051 43.9633 23.0106C44.0017 24.0917 43.7108 25.2277 43.0413 26.0399C41.5321 27.8674 38.9364 27.4283 38.5083 25.546C38.2833 24.5198 38.7223 23.274 39.6004 22.6868C34.7327 21.913 33.3497 26.6106 30.8033 29.1076C28.0594 31.8076 23.8063 30.8308 23.0819 27.6259C22.6813 25.8478 23.4276 23.6856 24.9368 22.6319C22.4014 22.0447 20.4697 22.7911 18.6861 24.5801C16.9904 26.2649 15.7775 28.5039 13.7251 29.7058C11.7933 30.8528 9.10977 30.9625 7.39207 29.3436C6.12437 28.1527 5.52619 26.2429 5.47131 24.2289C5.06521 34.9083 13.3684 43.881 24.0203 44.298Z" fill="url(#paint0_linear)"/>
<path fill-rule="evenodd" clip-rule="evenodd" d="M23.0216 16.9082C32.779 16.8423 31.4345 4.9172 22.9009 5.72941C13.4343 6.63491 5.85004 14.4496 5.47687 24.24C5.53175 26.254 6.12992 28.1638 7.39762 29.3547C9.11533 30.9681 11.7989 30.8639 13.7306 29.7169C14.5703 29.234 15.2617 28.5699 15.9038 27.8455C14.0489 30.0078 11.2117 28.9651 11.0525 26.1882C10.9044 23.4772 12.3971 20.7387 14.5483 19.1363C16.8752 17.3856 19.9155 16.9192 23.0216 16.9082Z" fill="url(#paint1_linear)"/>
<path fill-rule="evenodd" clip-rule="evenodd" d="M35.3418 10.5258C37.1418 10.5916 38.5412 12.1008 38.4644 13.9063C38.3985 15.6953 36.8894 17.1002 35.1058 17.0289C33.3058 16.9466 31.9174 15.4374 31.9887 13.6484C32.0491 11.8429 33.5528 10.4544 35.3418 10.5258Z" fill="url(#paint2_linear)"/>
<path fill-rule="evenodd" clip-rule="evenodd" d="M40.1931 16.7051C41.2578 16.7436 42.0864 17.6381 42.048 18.7082C42.0096 19.7783 41.0986 20.618 40.034 20.5796C38.9693 20.5247 38.1407 19.6302 38.1791 18.56C38.223 17.4954 39.1285 16.6667 40.1931 16.7051Z" fill="url(#paint3_linear)"/>
<defs>
<linearGradient id="paint0_linear" x1="27.0413" y1="15.3202" x2="21.1513" y2="42.1528" gradientUnits="userSpaceOnUse">
<stop stop-color="#521C89"/>
<stop offset="0.5164" stop-color="#8D1AF1"/>
<stop offset="1" stop-color="#FFA5F6"/>
</linearGradient>
<linearGradient id="paint1_linear" x1="14.8375" y1="29.2209" x2="19.0915" y2="11.2234" gradientUnits="userSpaceOnUse">
<stop stop-color="#1837D8"/>
<stop offset="0.5074" stop-color="#00C1FF"/>
<stop offset="1" stop-color="#70E6FF"/>
</linearGradient>
<linearGradient id="paint2_linear" x1="30.6846" y1="32.9666" x2="34.9386" y2="14.9691" gradientUnits="userSpaceOnUse">
<stop stop-color="#1837D8"/>
<stop offset="0.5074" stop-color="#00C1FF"/>
<stop offset="1" stop-color="#70E6FF"/>
</linearGradient>
<linearGradient id="paint3_linear" x1="36.4074" y1="34.3192" x2="40.6613" y2="16.3217" gradientUnits="userSpaceOnUse">
<stop stop-color="#1837D8"/>
<stop offset="0.5074" stop-color="#00C1FF"/>
<stop offset="1" stop-color="#70E6FF"/>
</linearGradient>
</defs>
</svg>
