<svg width="32" height="32" viewBox="0 0 32 32" fill="none" xmlns="http://www.w3.org/2000/svg">
<path d="M16.2268 13.779C16.173 13.7267 16.1267 13.6662 16.0901 13.5988C15.9558 13.352 15.9726 13.0531 16.1338 12.8221L21.3593 5.33042C21.5034 5.12373 21.7434 4.99997 21.9999 5C22.2566 5.0001 22.4965 5.12379 22.6406 5.33048L27.8662 12.8221C28.0274 13.0531 28.0442 13.3519 27.91 13.5988C27.7757 13.8456 27.5123 13.9999 27.2255 14L16.7745 14C16.566 13.9999 16.3699 13.9184 16.2268 13.779ZM22 7.09648L18.2369 12.4916L25.7633 12.4916L22 7.09648Z" fill="#3A5882"/>
<path d="M15.7733 17.471C15.827 17.5233 15.8733 17.5838 15.91 17.6512C16.0442 17.898 16.0274 18.1969 15.8662 18.4279L10.6407 25.9196C10.4966 26.1263 10.2566 26.25 10.0001 26.25C9.74347 26.2499 9.50352 26.1262 9.35939 25.9195L4.13383 18.4279C3.97267 18.1969 3.95587 17.8981 4.09008 17.6512C4.22436 17.4044 4.48769 17.2501 4.77451 17.25L15.2256 17.25C15.434 17.2501 15.6302 17.3316 15.7733 17.471ZM9.99999 24.1535L13.7631 18.7584L6.23673 18.7584L9.99999 24.1535Z" fill="#3A5882"/>
<path fill-rule="evenodd" clip-rule="evenodd" d="M22 13.25C22.4142 13.25 22.75 13.5858 22.75 14V25.5C22.75 25.9142 22.4142 26.25 22 26.25C21.5858 26.25 21.25 25.9142 21.25 25.5V14C21.25 13.5858 21.5858 13.25 22 13.25Z" fill="#3A5882"/>
<path fill-rule="evenodd" clip-rule="evenodd" d="M10 18C9.58581 18 9.25002 17.6642 9.25002 17.25L9.25003 5.75C9.25003 5.33579 9.58581 5 10 5C10.4142 5 10.75 5.33579 10.75 5.75L10.75 17.25C10.75 17.6642 10.4142 18 10 18Z" fill="#3A5882"/>
</svg>
