<svg width="1920" height="1155" viewBox="0 0 1920 1155" fill="none" xmlns="http://www.w3.org/2000/svg">
<g opacity="0.3">
<g clip-path="url(#clip0)">
<path d="M783.597 404.106L733.091 592.578H749.67L796.679 417.175L783.597 404.106Z" fill="#1A222B"/>
<path d="M901.28 521.789L897.539 518.048L888.212 508.72L875.13 495.639L869.223 489.732L862.061 482.557L832.58 592.578H849.159L870.351 513.499L883.42 526.581L865.738 592.578H882.318L901.28 521.789Z" fill="#1A222B"/>
<path d="M948.494 569.003L940.512 561.021L927.443 547.939L920.179 540.687L914.362 534.871L910.095 550.771L908.865 552.014L909.57 552.731L898.897 592.578H915.477L922.652 565.813L935.733 578.882L932.056 592.578H948.635L953.594 574.102L948.494 569.003Z" fill="#1A222B"/>
<path d="M848.98 469.488L844.687 465.196L835.898 456.407L822.829 443.325L816.372 436.881L809.748 430.257L766.249 592.578H782.842L818.037 461.199L831.119 474.268L799.421 592.578H816L848.98 469.488Z" fill="#1A222B"/>
<path d="M794.924 392.78L807.992 405.849L960 365.131V348.539L794.924 392.78Z" fill="#1A222B"/>
<path d="M925.688 523.544L938.757 536.613L960 530.924V514.345L925.688 523.544Z" fill="#1A222B"/>
<path d="M829.492 427.348L834.156 432.012L847.224 445.081L857.808 455.664L860.306 458.162L960 431.448V414.869L865.085 440.301L852.016 427.22L960 398.289V381.71L821.074 418.93L829.492 427.348Z" fill="#1A222B"/>
<path d="M917.398 492.602L904.317 479.52L960 464.607V448.027L873.375 471.231L882.433 480.289L886.456 484.312L899.538 497.394L910.749 508.605L912.607 510.463L960 497.765V481.186L917.398 492.602Z" fill="#1A222B"/>
<path d="M951.838 549.695L960 557.856V547.504L951.838 549.695Z" fill="#1A222B"/>
<path d="M723.673 565.954L705.813 570.733L624.287 592.578H686.171L701.021 588.593L699.957 592.578H716.537L718.882 583.814L723.673 565.954Z" fill="#1A222B"/>
<path d="M879.883 355.56L879.832 355.521V355.508L840.242 315.918L835.463 333.778L848.954 347.283L812.72 356.995L832.003 285.04L866.943 319.979L897.744 350.768L915.592 345.989L902.523 332.907L836.795 267.179L823.713 254.097L818.922 271.958L794.86 361.786L790.068 379.647L807.941 374.855L879.883 355.56Z" fill="#1A222B"/>
<path d="M311.213 550.387L306.422 568.247L299.913 592.578H316.492L319.503 581.329L330.753 592.578H353.405L324.295 563.468L311.213 550.387Z" fill="#1A222B"/>
<path d="M70.3769 312.266L-65 348.538V365.131L65.5978 330.127L279.016 543.545L265.883 592.578H282.462L296.876 538.766L70.3769 312.266Z" fill="#1A222B"/>
<path d="M12.9384 526.619L-65 547.504V557.856L-64.9872 557.869L-60.08 562.776L-47.0112 575.845L-36.6716 586.185L-33.9297 588.927L-1.41156 580.214L10.9525 592.578H33.5922L3.3675 562.353L-29.1506 571.066L-42.2194 557.984L8.15937 544.493L56.2447 592.578H78.8972L12.9384 526.619Z" fill="#1A222B"/>
<path d="M60.8059 348L-65 381.71V398.289L56.0269 365.861L243.282 553.128L232.711 592.578H249.291L261.155 548.337L60.8059 348Z" fill="#1A222B"/>
<path d="M153.978 577.062L98.6924 521.776L87.3662 510.45L76.0399 521.776L64.7137 533.102L53.4003 544.429H53.3875L64.7137 555.755L100.384 591.412L100.076 592.578H116.656L118.244 586.633L76.0399 544.429L87.3662 533.102L136.105 581.841L133.235 592.578H149.814L153.978 577.062Z" fill="#1A222B"/>
<path d="M36.8722 437.316L98.6925 499.124L110.019 510.45L143.997 476.484L143.242 475.728L132.671 465.158L51.235 383.722L-65 414.869V431.448L46.4431 401.582L121.345 476.484L110.019 487.798L41.6641 419.443L-65 448.028V464.607L36.8722 437.316Z" fill="#1A222B"/>
<path d="M30.7478 521.776L42.0612 533.103H42.0741L53.4003 521.776L64.7137 510.45L76.04 499.124L64.7137 487.798L32.0931 455.177L-65 481.186V497.766L27.3013 473.038L53.4003 499.124L42.0741 510.45L22.5222 490.898L-65 514.345V530.924L17.7303 508.759L30.7478 521.776Z" fill="#1A222B"/>
<path d="M225.421 557.907L165.881 498.368L154.568 487.042L143.242 498.368L131.915 509.694L120.589 521.02L131.915 532.346L171.839 572.27L166.394 592.578H182.973L189.7 567.478L143.242 521.02L154.568 509.694L207.56 562.699L199.553 592.578H216.132L225.421 557.907Z" fill="#1A222B"/>
<path d="M929.583 338.481L960 330.332V313.753L934.375 320.62L720.957 107.202L749.67 0H733.091L703.084 111.981L929.583 338.481Z" fill="#1A222B"/>
<path d="M901.267 151.623L889.954 140.297L855.975 174.276L856.731 175.032L867.302 185.589L948.725 267.025L960 264.002V247.422L953.517 249.165L878.628 174.276L889.941 162.949L958.296 231.304L960 230.843V210.356L901.267 151.623Z" fill="#1A222B"/>
<path d="M957.899 117.644L946.573 128.971L935.246 140.297L923.92 151.623L935.246 162.949L960 187.703V165.051L946.573 151.623L957.899 140.297L960 142.398V119.746L957.899 117.644Z" fill="#1A222B"/>
<path d="M917.45 54.5428L960 97.1059V74.4534L935.31 49.7638L948.635 0H932.056L917.45 54.5428Z" fill="#1A222B"/>
<path d="M960 51.801V19.4751L953.171 44.972L960 51.801Z" fill="#1A222B"/>
<path d="M774.539 92.8394L834.079 152.379L845.405 163.705L856.731 152.379L868.057 141.053L879.371 129.727H879.384L868.057 118.4L828.134 78.4766L849.159 0H832.58L810.26 83.2684L856.731 129.727L845.405 141.053L792.4 88.0475L816 0H799.421L774.539 92.8394Z" fill="#1A222B"/>
<path d="M845.994 73.6975L901.267 128.971L912.594 140.297L923.92 128.971L935.246 117.644L946.573 106.318L935.246 94.9919L899.576 59.3347L915.477 0H898.897L881.716 64.1138L923.92 106.318L912.594 117.644L863.855 68.9056L882.318 0H865.738L845.994 73.6975Z" fill="#1A222B"/>
<path d="M939.154 302.759L960 297.173V280.594L943.946 284.886L756.678 97.6184L782.842 0H766.249L738.818 102.41L939.154 302.759Z" fill="#1A222B"/>
<path d="M691.309 32.2491L677.805 18.7575L659.944 23.5366L699.535 63.14L699.547 63.1272L699.586 63.1784L716.537 0H699.957L691.309 32.2491Z" fill="#1A222B"/>
<path d="M598.124 7.00844L611.205 20.09L676.933 85.8181L690.002 98.8997L694.794 81.0391L664.006 50.2378L629.066 15.2981L686.171 0H624.287L615.984 2.22938L598.124 7.00844Z" fill="#1A222B"/>
<path d="M208.444 403.491L284.166 120.886L271.098 107.817L190.584 408.27L374.892 592.578H397.544L208.444 403.491Z" fill="#1A222B"/>
<path d="M704.467 541.187L512.664 592.578H574.536L717.549 554.256L704.467 541.187Z" fill="#1A222B"/>
<path d="M691.386 528.106L682.968 519.688L678.317 515.037L665.236 501.955L654.653 491.372L652.167 488.874L441.017 545.454L366.115 470.565L377.441 459.238L445.796 527.593L639.085 475.805L630.027 466.747L626.004 462.723L612.935 449.642L601.711 438.431L599.853 436.573L460.159 473.998L434.073 447.912L445.399 436.586L464.951 456.138L586.772 423.492L573.703 410.423L469.73 438.277L456.725 425.26L445.399 413.933L434.073 425.26L422.746 436.586L411.42 447.912L422.746 459.238L455.38 491.859L595.074 454.434L608.143 467.515L450.588 509.732L388.768 447.912L377.454 436.586L343.475 470.565L344.231 471.321L354.802 481.878L436.225 563.314L647.375 506.734L660.457 519.816L431.446 581.175L244.178 393.92L305.538 164.91L318.619 177.978L262.039 389.128L321.579 448.668L332.905 459.994L344.231 448.668L355.558 437.342L366.871 426.016H366.884L355.558 414.689L315.634 374.766L357.851 217.21L370.92 230.292L333.494 369.987L388.768 425.26L400.094 436.586L411.42 425.26L422.746 413.933L434.073 402.607L422.746 391.281L387.076 355.624L410.152 269.524L423.233 282.593L404.95 350.832L474.522 420.417L560.622 397.341L552.46 389.167L547.553 384.26L534.471 371.191L524.132 360.851L521.39 358.109L488.884 366.822L458.532 336.482L462.465 321.824L490.384 349.743L508.244 344.951L467.244 303.964L464.694 301.401L454.163 290.882L440.671 341.261L484.093 384.682L516.611 375.97L529.679 389.052L479.313 402.543L422.81 346.053L441.094 277.813L435.994 272.714L428.012 264.732L414.943 251.65L407.679 244.398L401.862 238.582L397.595 254.482L396.353 255.725L397.07 256.442L369.216 360.403L411.42 402.607L400.094 413.933L351.355 365.195L388.78 225.5L385.039 221.759L375.712 212.418L362.63 199.35L356.723 193.443L349.561 186.268L297.76 379.557L344.231 426.016L332.905 437.342L279.9 384.337L336.48 173.199L332.188 168.907L323.398 160.118L310.329 147.036L303.872 140.592L297.248 133.968L226.318 398.699L420.197 592.578H450.78L691.386 528.106Z" fill="#1A222B"/>
<path d="M582.877 15.9773L282.424 96.491L295.492 109.56L578.098 33.8379L791.516 247.256L715.794 529.861L728.862 542.93L809.376 242.477L582.877 15.9773Z" fill="#1A222B"/>
<path d="M573.306 51.7112L308.574 122.641L316.992 131.059L321.656 135.723L334.724 148.791L345.308 159.375L347.806 161.873L558.943 105.293L633.845 180.182L622.519 191.508L554.164 123.154L360.875 174.942L369.933 184L373.956 188.023L387.038 201.105L398.249 212.316L400.107 214.174L539.801 176.748L565.9 202.835L554.574 214.161L535.022 194.609L413.188 227.255L426.257 240.324L530.23 212.47L543.248 225.487L554.561 236.813H554.574L565.9 225.487L577.214 214.161L588.54 202.835L577.214 191.508L544.593 158.888L404.898 196.313L391.817 183.231L549.372 141.014L611.193 202.835L622.519 214.161L656.497 180.182L655.742 179.439L645.171 168.869L563.735 87.4324L352.585 144.012L339.516 130.931L568.527 69.5718L755.782 256.839L694.422 485.837L681.354 472.768L737.921 261.618L678.381 202.079L667.068 190.752L655.742 202.079L644.415 213.405L633.089 224.731L644.415 236.057L684.339 275.981L642.122 433.536L629.04 420.455L666.478 280.76L611.193 225.487L599.866 214.161L588.54 225.487L577.214 236.813L565.9 248.14H565.887L577.214 259.466L612.884 295.123L589.808 381.236L576.74 368.154L595.023 299.915L525.438 230.33L439.338 253.406L447.513 261.58L452.42 266.487L465.489 279.556L475.828 289.896L478.57 292.637L511.088 283.925L541.428 314.278L537.508 328.922L509.577 301.004L491.729 305.796L532.716 346.783L535.278 349.346L545.798 359.865L559.289 309.486L515.867 266.064L483.362 274.777L470.281 261.695L520.659 248.204L577.163 304.694L558.879 372.946L563.966 378.033L571.948 386.015L585.029 399.096L592.281 406.348L598.098 412.165L602.365 396.265L603.608 395.022L602.89 394.305L630.744 290.344L588.54 248.14L599.866 236.813L648.605 285.552L611.18 425.247L614.921 428.988L624.261 438.328L637.33 451.397L643.237 457.304L650.412 464.479L702.2 271.189L655.742 224.731L667.068 213.405L720.06 266.41L663.48 477.547L667.772 481.84L676.562 490.629L689.643 503.711L696.088 510.155L702.712 516.779L773.655 252.047L573.306 51.7112Z" fill="#1A222B"/>
<path d="M103.484 298.518L85.6238 303.297L98.7053 316.379L164.433 382.107L177.502 395.189L182.294 377.328L151.506 346.527L116.566 311.587L188.521 292.304L178.796 328.538L165.305 315.046L147.444 319.825L187.035 359.429L187.048 359.416L187.086 359.467L206.382 287.525L211.173 269.665L193.313 274.444L103.484 298.518Z" fill="#1A222B"/>
<path d="M277.568 83.3581L295.441 78.5662L367.384 59.2706L367.332 59.2322V59.2194L327.742 19.6287L322.95 37.4894L336.454 50.9937L300.22 60.7056L316.492 0H299.913L282.36 65.4975L277.568 83.3581Z" fill="#1A222B"/>
<path d="M354.443 23.6903L385.231 54.4788L403.092 49.6869L390.023 36.6181L353.405 0H330.752L354.443 23.6903Z" fill="#1A222B"/>
<path d="M191.967 244.898L-65 313.753V330.332L205.049 257.967L191.967 244.898Z" fill="#1A222B"/>
<path d="M-57.1203 195.57L82.5616 158.145L95.6431 171.226L-61.9122 213.444L-65 210.356V230.843L126.585 179.516L117.527 170.458L113.504 166.434L100.435 153.353L89.2112 142.142L87.3534 140.284L-52.3413 177.709L-65 165.051V187.703L-57.1203 195.57Z" fill="#1A222B"/>
<path d="M-47.5494 159.849L74.2719 127.203L61.2031 114.134L-42.7703 141.988L-55.775 128.971L-65 119.746V142.398L-47.5494 159.849Z" fill="#1A222B"/>
<path d="M-37.9784 124.127L48.1216 101.052L39.9472 92.8778L35.0528 87.9706L21.9712 74.9019L11.6316 64.5622L8.88969 61.8203L-23.6156 70.5328L-53.9684 40.1928L-50.0478 25.5353L-22.1166 53.4538L-4.25594 48.6619L-45.2559 7.67469L-47.8184 5.11219L-52.9306 0H-59.7853L-65 19.475V51.8009L-28.4075 88.3934L4.11063 79.6809L17.1794 92.7625L-33.1994 106.254L-65 74.4534V97.1059L-37.9784 124.127Z" fill="#1A222B"/>
<path d="M170.468 223.399L165.817 218.748L152.736 205.666L142.152 195.083L139.667 192.585L-65 247.422V264.002L134.875 210.445L147.957 223.527L-65 280.594V297.173L178.886 231.817L170.468 223.399Z" fill="#1A222B"/>
<path d="M216.362 246.641L282.462 0H265.883L203.294 233.572L216.362 246.641Z" fill="#1A222B"/>
<path d="M150.98 181.258L155.273 185.551L164.062 194.34L177.143 207.422L183.588 213.866L190.212 220.49L249.291 0H232.711L181.923 189.548L168.854 176.479L216.132 0H199.553L150.98 181.258Z" fill="#1A222B"/>
<path d="M64.6625 8.405L46.379 76.6572L51.4656 81.7438L59.4478 89.7259L72.5293 102.808L79.7812 110.059L85.5981 115.876L89.8647 99.9759L91.1075 98.7331L90.39 98.0156L116.656 0H100.076L77.3084 84.9469L64.2397 71.8653L82.5231 3.62594L78.8972 0H56.2446L64.6625 8.405Z" fill="#1A222B"/>
<path d="M25.0078 32.6334L-2.92343 4.715L-20.7712 9.50688L20.216 50.4941L22.7785 53.0566L33.2975 63.5756L46.7891 13.1969L33.5922 0H10.9525L28.9284 17.9888L25.0078 32.6334Z" fill="#1A222B"/>
<path d="M98.6797 128.958L102.421 132.699L111.761 142.039L124.83 155.108L130.737 161.015L137.912 168.19L182.973 0H166.394L129.622 137.247L116.54 124.166L149.814 0H133.235L98.6797 128.958Z" fill="#1A222B"/>
<path d="M574.536 0H512.664L421.875 24.3309L397.544 0H374.892L417.083 42.1916L574.536 0Z" fill="#1A222B"/>
<path d="M450.78 0H420.197L426.654 6.47031L450.78 0Z" fill="#1A222B"/>
</g>
<g clip-path="url(#clip1)">
<path d="M1808.6 404.106L1758.09 592.578H1774.67L1821.68 417.175L1808.6 404.106Z" fill="#1A222B"/>
<path d="M1926.28 521.789L1922.54 518.048L1913.21 508.72L1900.13 495.639L1894.22 489.732L1887.06 482.557L1857.58 592.578H1874.16L1895.35 513.499L1908.42 526.581L1890.74 592.578H1907.32L1926.28 521.789Z" fill="#1A222B"/>
<path d="M1873.98 469.488L1869.69 465.196L1860.9 456.407L1847.83 443.325L1841.37 436.881L1834.75 430.257L1791.25 592.578H1807.84L1843.04 461.199L1856.12 474.268L1824.42 592.578H1841L1873.98 469.488Z" fill="#1A222B"/>
<path d="M1819.92 392.78L1832.99 405.849L1985 365.131V348.539L1819.92 392.78Z" fill="#1A222B"/>
<path d="M1854.49 427.348L1859.16 432.012L1872.22 445.081L1882.81 455.664L1885.31 458.162L1985 431.448V414.869L1890.08 440.301L1877.02 427.22L1985 398.289V381.71L1846.07 418.93L1854.49 427.348Z" fill="#1A222B"/>
<path d="M1942.4 492.602L1929.32 479.52L1985 464.607V448.027L1898.37 471.231L1907.43 480.289L1911.46 484.312L1924.54 497.394L1935.75 508.605L1937.61 510.463L1985 497.765V481.186L1942.4 492.602Z" fill="#1A222B"/>
<path d="M1748.67 565.954L1730.81 570.733L1649.29 592.578H1711.17L1726.02 588.593L1724.96 592.578H1741.54L1743.88 583.814L1748.67 565.954Z" fill="#1A222B"/>
<path d="M1904.88 355.56L1904.83 355.521V355.508L1865.24 315.918L1860.46 333.778L1873.95 347.283L1837.72 356.995L1857 285.04L1891.94 319.979L1922.74 350.768L1940.59 345.989L1927.52 332.907L1861.8 267.179L1848.71 254.097L1843.92 271.958L1819.86 361.786L1815.07 379.647L1832.94 374.855L1904.88 355.56Z" fill="#1A222B"/>
<path d="M1336.21 550.387L1331.42 568.247L1324.91 592.578H1341.49L1344.5 581.329L1355.75 592.578H1378.41L1349.3 563.468L1336.21 550.387Z" fill="#1A222B"/>
<path d="M965.215 592.578H972.069L966.663 587.171L965.215 592.578Z" fill="#1A222B"/>
<path d="M1095.38 312.266L960 348.538V365.131L1090.6 330.127L1304.02 543.545L1290.88 592.578H1307.46L1321.88 538.766L1095.38 312.266Z" fill="#1A222B"/>
<path d="M1037.94 526.619L960 547.504V557.856L960.013 557.869L964.92 562.776L977.989 575.845L988.328 586.185L991.07 588.927L1023.59 580.214L1035.95 592.578H1058.59L1028.37 562.353L995.849 571.066L982.781 557.984L1033.16 544.493L1081.24 592.578H1103.9L1037.94 526.619Z" fill="#1A222B"/>
<path d="M1085.81 348L960 381.71V398.289L1081.03 365.861L1268.28 553.128L1257.71 592.578H1274.29L1286.15 548.337L1085.81 348Z" fill="#1A222B"/>
<path d="M1178.98 577.062L1123.69 521.776L1112.37 510.45L1101.04 521.776L1089.71 533.102L1078.4 544.429H1078.39L1089.71 555.755L1125.38 591.412L1125.08 592.578H1141.66L1143.24 586.633L1101.04 544.429L1112.37 533.102L1161.1 581.841L1158.23 592.578H1174.81L1178.98 577.062Z" fill="#1A222B"/>
<path d="M1061.87 437.316L1123.69 499.124L1135.02 510.45L1169 476.484L1168.24 475.728L1157.67 465.158L1076.24 383.722L960 414.869V431.448L1071.44 401.582L1146.35 476.484L1135.02 487.798L1066.66 419.443L960 448.028V464.607L1061.87 437.316Z" fill="#1A222B"/>
<path d="M1055.75 521.776L1067.06 533.103H1067.07L1078.4 521.776L1089.71 510.45L1101.04 499.124L1089.71 487.798L1057.09 455.177L960 481.186V497.766L1052.3 473.038L1078.4 499.124L1067.07 510.45L1047.52 490.898L960 514.345V530.924L1042.73 508.759L1055.75 521.776Z" fill="#1A222B"/>
<path d="M1250.42 557.907L1190.88 498.368L1179.57 487.042L1168.24 498.368L1156.92 509.694L1145.59 521.02L1156.92 532.346L1196.84 572.27L1191.39 592.578H1207.97L1214.7 567.478L1168.24 521.02L1179.57 509.694L1232.56 562.699L1224.55 592.578H1241.13L1250.42 557.907Z" fill="#1A222B"/>
<path d="M1954.58 338.481L1985 330.332V313.753L1959.38 320.62L1745.96 107.202L1774.67 0H1758.09L1728.08 111.981L1954.58 338.481Z" fill="#1A222B"/>
<path d="M1926.27 151.623L1914.95 140.297L1880.98 174.276L1881.73 175.032L1892.3 185.589L1973.73 267.025L1985 264.002V247.422L1978.52 249.165L1903.63 174.276L1914.94 162.949L1983.3 231.304L1985 230.843V210.356L1926.27 151.623Z" fill="#1A222B"/>
<path d="M1799.54 92.8394L1859.08 152.379L1870.4 163.705L1881.73 152.379L1893.06 141.053L1904.37 129.727H1904.38L1893.06 118.4L1853.13 78.4766L1874.16 0H1857.58L1835.26 83.2684L1881.73 129.727L1870.4 141.053L1817.4 88.0475L1841 0H1824.42L1799.54 92.8394Z" fill="#1A222B"/>
<path d="M1870.99 73.6975L1926.27 128.971L1937.59 140.297L1948.92 128.971L1960.25 117.644L1971.57 106.318L1960.25 94.9919L1924.58 59.3347L1940.48 0H1923.9L1906.72 64.1138L1948.92 106.318L1937.59 117.644L1888.86 68.9056L1907.32 0H1890.74L1870.99 73.6975Z" fill="#1A222B"/>
<path d="M1964.15 302.759L1985 297.173V280.594L1968.95 284.886L1781.68 97.6184L1807.84 0H1791.25L1763.82 102.41L1964.15 302.759Z" fill="#1A222B"/>
<path d="M1716.31 32.2491L1702.8 18.7575L1684.94 23.5366L1724.53 63.14L1724.55 63.1272L1724.59 63.1784L1741.54 0H1724.96L1716.31 32.2491Z" fill="#1A222B"/>
<path d="M1623.12 7.00844L1636.21 20.09L1701.93 85.8181L1715 98.8997L1719.79 81.0391L1689.01 50.2378L1654.07 15.2981L1711.17 0H1649.29L1640.98 2.22938L1623.12 7.00844Z" fill="#1A222B"/>
<path d="M1233.44 403.491L1309.17 120.886L1296.1 107.817L1215.58 408.27L1399.89 592.578H1422.54L1233.44 403.491Z" fill="#1A222B"/>
<path d="M1729.47 541.187L1537.66 592.578H1599.54L1742.55 554.256L1729.47 541.187Z" fill="#1A222B"/>
<path d="M1716.39 528.106L1707.97 519.688L1703.32 515.037L1690.24 501.955L1679.65 491.372L1677.17 488.874L1466.02 545.454L1391.12 470.565L1402.44 459.238L1470.8 527.593L1664.09 475.805L1655.03 466.747L1651 462.723L1637.94 449.642L1626.71 438.431L1624.85 436.573L1485.16 473.998L1459.07 447.912L1470.4 436.586L1489.95 456.138L1611.77 423.492L1598.7 410.423L1494.73 438.277L1481.73 425.26L1470.4 413.933L1459.07 425.26L1447.75 436.586L1436.42 447.912L1447.75 459.238L1480.38 491.859L1620.07 454.434L1633.14 467.515L1475.59 509.732L1413.77 447.912L1402.45 436.586L1368.48 470.565L1369.23 471.321L1379.8 481.878L1461.23 563.314L1672.38 506.734L1685.46 519.816L1456.45 581.175L1269.18 393.92L1330.54 164.91L1343.62 177.978L1287.04 389.128L1346.58 448.668L1357.91 459.994L1369.23 448.668L1380.56 437.342L1391.87 426.016H1391.88L1380.56 414.689L1340.63 374.766L1382.85 217.21L1395.92 230.292L1358.49 369.987L1413.77 425.26L1425.09 436.586L1436.42 425.26L1447.75 413.933L1459.07 402.607L1447.75 391.281L1412.08 355.624L1435.15 269.524L1448.23 282.593L1429.95 350.832L1499.52 420.417L1585.62 397.341L1577.46 389.167L1572.55 384.26L1559.47 371.191L1549.13 360.851L1546.39 358.109L1513.88 366.822L1483.53 336.482L1487.47 321.824L1515.38 349.743L1533.24 344.951L1492.24 303.964L1489.69 301.401L1479.16 290.882L1465.67 341.261L1509.09 384.682L1541.61 375.97L1554.68 389.052L1504.31 402.543L1447.81 346.053L1466.09 277.813L1460.99 272.714L1453.01 264.732L1439.94 251.65L1432.68 244.398L1426.86 238.582L1422.6 254.482L1421.35 255.725L1422.07 256.442L1394.22 360.403L1436.42 402.607L1425.09 413.933L1376.36 365.195L1413.78 225.5L1410.04 221.759L1400.71 212.418L1387.63 199.35L1381.72 193.443L1374.56 186.268L1322.76 379.557L1369.23 426.016L1357.91 437.342L1304.9 384.337L1361.48 173.199L1357.19 168.907L1348.4 160.118L1335.33 147.036L1328.87 140.592L1322.25 133.968L1251.32 398.699L1445.2 592.578H1475.78L1716.39 528.106Z" fill="#1A222B"/>
<path d="M1607.88 15.9773L1307.42 96.491L1320.49 109.56L1603.1 33.8379L1816.52 247.256L1740.79 529.861L1753.86 542.93L1834.38 242.477L1607.88 15.9773Z" fill="#1A222B"/>
<path d="M1598.31 51.7112L1333.57 122.641L1341.99 131.059L1346.66 135.723L1359.72 148.791L1370.31 159.375L1372.81 161.873L1583.94 105.293L1658.85 180.182L1647.52 191.508L1579.16 123.154L1385.87 174.942L1394.93 184L1398.96 188.023L1412.04 201.105L1423.25 212.316L1425.11 214.174L1564.8 176.748L1590.9 202.835L1579.57 214.161L1560.02 194.609L1438.19 227.255L1451.26 240.324L1555.23 212.47L1568.25 225.487L1579.56 236.813H1579.57L1590.9 225.487L1602.21 214.161L1613.54 202.835L1602.21 191.508L1569.59 158.888L1429.9 196.313L1416.82 183.231L1574.37 141.014L1636.19 202.835L1647.52 214.161L1681.5 180.182L1680.74 179.439L1670.17 168.869L1588.74 87.4324L1377.59 144.012L1364.52 130.931L1593.53 69.5718L1780.78 256.839L1719.42 485.837L1706.35 472.768L1762.92 261.618L1703.38 202.079L1692.07 190.752L1680.74 202.079L1669.42 213.405L1658.09 224.731L1669.42 236.057L1709.34 275.981L1667.12 433.536L1654.04 420.455L1691.48 280.76L1636.19 225.487L1624.87 214.161L1613.54 225.487L1602.21 236.813L1590.9 248.14H1590.89L1602.21 259.466L1637.88 295.123L1614.81 381.236L1601.74 368.154L1620.02 299.915L1550.44 230.33L1464.34 253.406L1472.51 261.58L1477.42 266.487L1490.49 279.556L1500.83 289.896L1503.57 292.637L1536.09 283.925L1566.43 314.278L1562.51 328.922L1534.58 301.004L1516.73 305.796L1557.72 346.783L1560.28 349.346L1570.8 359.865L1584.29 309.486L1540.87 266.064L1508.36 274.777L1495.28 261.695L1545.66 248.204L1602.16 304.694L1583.88 372.946L1588.97 378.033L1596.95 386.015L1610.03 399.096L1617.28 406.348L1623.1 412.165L1627.36 396.265L1628.61 395.022L1627.89 394.305L1655.74 290.344L1613.54 248.14L1624.87 236.813L1673.61 285.552L1636.18 425.247L1639.92 428.988L1649.26 438.328L1662.33 451.397L1668.24 457.304L1675.41 464.479L1727.2 271.189L1680.74 224.731L1692.07 213.405L1745.06 266.41L1688.48 477.547L1692.77 481.84L1701.56 490.629L1714.64 503.711L1721.09 510.155L1727.71 516.779L1798.65 252.047L1598.31 51.7112Z" fill="#1A222B"/>
<path d="M1128.48 298.518L1110.62 303.297L1123.71 316.379L1189.43 382.107L1202.5 395.189L1207.29 377.328L1176.51 346.527L1141.57 311.587L1213.52 292.304L1203.8 328.538L1190.3 315.046L1172.44 319.825L1212.03 359.429L1212.05 359.416L1212.09 359.467L1231.38 287.525L1236.17 269.665L1218.31 274.444L1128.48 298.518Z" fill="#1A222B"/>
<path d="M1302.57 83.3581L1320.44 78.5662L1392.38 59.2706L1392.33 59.2322V59.2194L1352.74 19.6287L1347.95 37.4894L1361.45 50.9937L1325.22 60.7056L1341.49 0H1324.91L1307.36 65.4975L1302.57 83.3581Z" fill="#1A222B"/>
<path d="M1379.44 23.6903L1410.23 54.4788L1428.09 49.6869L1415.02 36.6181L1378.4 0H1355.75L1379.44 23.6903Z" fill="#1A222B"/>
<path d="M1216.97 244.898L960 313.753V330.332L1230.05 257.967L1216.97 244.898Z" fill="#1A222B"/>
<path d="M967.88 195.57L1107.56 158.145L1120.64 171.226L963.088 213.444L960 210.356V230.843L1151.59 179.516L1142.53 170.458L1138.5 166.434L1125.43 153.353L1114.21 142.142L1112.35 140.284L972.659 177.709L960 165.051V187.703L967.88 195.57Z" fill="#1A222B"/>
<path d="M977.451 159.849L1099.27 127.203L1086.2 114.134L982.23 141.988L969.225 128.971L960 119.746V142.398L977.451 159.849Z" fill="#1A222B"/>
<path d="M987.022 124.127L1073.12 101.052L1064.95 92.8778L1060.05 87.9706L1046.97 74.9019L1036.63 64.5622L1033.89 61.8203L1001.38 70.5328L971.032 40.1928L974.952 25.5353L1002.88 53.4538L1020.74 48.6619L979.744 7.67469L977.182 5.11219L972.069 0H965.215L960 19.475V51.8009L996.592 88.3934L1029.11 79.6809L1042.18 92.7625L991.801 106.254L960 74.4534V97.1059L987.022 124.127Z" fill="#1A222B"/>
<path d="M1195.47 223.399L1190.82 218.748L1177.74 205.666L1167.15 195.083L1164.67 192.585L960 247.422V264.002L1159.88 210.445L1172.96 223.527L960 280.594V297.173L1203.89 231.817L1195.47 223.399Z" fill="#1A222B"/>
<path d="M1241.36 246.641L1307.46 0H1290.88L1228.29 233.572L1241.36 246.641Z" fill="#1A222B"/>
<path d="M1175.98 181.258L1180.27 185.551L1189.06 194.34L1202.14 207.422L1208.59 213.866L1215.21 220.49L1274.29 0H1257.71L1206.92 189.548L1193.85 176.479L1241.13 0H1224.55L1175.98 181.258Z" fill="#1A222B"/>
<path d="M1089.66 8.405L1071.38 76.6572L1076.47 81.7438L1084.45 89.7259L1097.53 102.808L1104.78 110.059L1110.6 115.876L1114.86 99.9759L1116.11 98.7331L1115.39 98.0156L1141.66 0H1125.08L1102.31 84.9469L1089.24 71.8653L1107.52 3.62594L1103.9 0H1081.24L1089.66 8.405Z" fill="#1A222B"/>
<path d="M1050.01 32.6334L1022.08 4.715L1004.23 9.50688L1045.22 50.4941L1047.78 53.0566L1058.3 63.5756L1071.79 13.1969L1058.59 0H1035.95L1053.93 17.9888L1050.01 32.6334Z" fill="#1A222B"/>
<path d="M1123.68 128.958L1127.42 132.699L1136.76 142.039L1149.83 155.108L1155.74 161.015L1162.91 168.19L1207.97 0H1191.39L1154.62 137.247L1141.54 124.166L1174.81 0H1158.24L1123.68 128.958Z" fill="#1A222B"/>
<path d="M1599.54 0H1537.66L1446.88 24.3309L1422.54 0H1399.89L1442.08 42.1916L1599.54 0Z" fill="#1A222B"/>
<path d="M1475.78 0H1445.2L1451.65 6.47031L1475.78 0Z" fill="#1A222B"/>
</g>
<g clip-path="url(#clip2)">
<path d="M783.597 997.325L733.091 1185.8H749.67L796.679 1010.39L783.597 997.325Z" fill="#1A222B"/>
<path d="M901.28 1115.01L897.539 1111.27L888.212 1101.94L875.13 1088.86L869.223 1082.95L862.061 1075.78L832.58 1185.8H849.159L870.351 1106.72L883.42 1119.8L865.738 1185.8H882.318L901.28 1115.01Z" fill="#1A222B"/>
<path d="M948.494 1162.22L940.512 1154.24L927.443 1141.16L920.179 1133.91L914.362 1128.09L910.095 1143.99L908.865 1145.23L909.57 1145.95L898.897 1185.8H915.477L922.652 1159.03L935.733 1172.1L932.056 1185.8H948.635L953.594 1167.32L948.494 1162.22Z" fill="#1A222B"/>
<path d="M848.98 1062.71L844.687 1058.42L835.898 1049.63L822.829 1036.54L816.372 1030.1L809.748 1023.48L766.249 1185.8H782.842L818.037 1054.42L831.119 1067.49L799.421 1185.8H816L848.98 1062.71Z" fill="#1A222B"/>
<path d="M794.924 985.999L807.992 999.068L960 958.35V941.757L794.924 985.999Z" fill="#1A222B"/>
<path d="M925.688 1116.76L938.757 1129.83L960 1124.14V1107.56L925.688 1116.76Z" fill="#1A222B"/>
<path d="M829.492 1020.57L834.156 1025.23L847.224 1038.3L857.808 1048.88L860.306 1051.38L960 1024.67V1008.09L865.085 1033.52L852.016 1020.44L960 991.508V974.929L821.074 1012.15L829.492 1020.57Z" fill="#1A222B"/>
<path d="M917.398 1085.82L904.317 1072.74L960 1057.83V1041.25L873.375 1064.45L882.433 1073.51L886.456 1077.53L899.538 1090.61L910.749 1101.82L912.607 1103.68L960 1090.98V1074.4L917.398 1085.82Z" fill="#1A222B"/>
<path d="M951.838 1142.91L960 1151.08V1140.72L951.838 1142.91Z" fill="#1A222B"/>
<path d="M879.883 948.778L879.832 948.74V948.727L840.242 909.136L835.463 926.997L848.954 940.501L812.72 950.213L832.003 878.258L866.943 913.198L897.744 943.986L915.592 939.207L902.523 926.126L836.795 860.398L823.713 847.316L818.922 865.177L794.86 955.005L790.068 972.866L807.941 968.074L879.883 948.778Z" fill="#1A222B"/>
<path d="M311.213 1143.61L306.422 1161.47L299.913 1185.8H316.492L319.503 1174.55L330.753 1185.8H353.405L324.295 1156.69L311.213 1143.61Z" fill="#1A222B"/>
<path d="M70.3769 905.485L-65 941.757V958.349L65.5978 923.345L279.016 1136.76L265.883 1185.8H282.462L296.876 1131.98L70.3769 905.485Z" fill="#1A222B"/>
<path d="M12.9384 1119.84L-65 1140.72V1151.07L-64.9872 1151.09L-60.08 1155.99L-47.0112 1169.06L-36.6716 1179.4L-33.9297 1182.15L-1.41156 1173.43L10.9525 1185.8H33.5922L3.3675 1155.57L-29.1506 1164.28L-42.2194 1151.2L8.15937 1137.71L56.2447 1185.8H78.8972L12.9384 1119.84Z" fill="#1A222B"/>
<path d="M60.8059 941.219L-65 974.929V991.508L56.0269 959.08L243.282 1146.35L232.711 1185.8H249.291L261.155 1141.56L60.8059 941.219Z" fill="#1A222B"/>
<path d="M153.978 1170.28L98.6924 1115L87.3662 1103.67L76.0399 1115L64.7137 1126.32L53.4003 1137.65H53.3875L64.7137 1148.97L100.384 1184.63L100.076 1185.8H116.656L118.244 1179.85L76.0399 1137.65L87.3662 1126.32L136.105 1175.06L133.235 1185.8H149.814L153.978 1170.28Z" fill="#1A222B"/>
<path d="M36.8722 1030.54L98.6925 1092.34L110.019 1103.67L143.997 1069.7L143.242 1068.95L132.671 1058.38L51.235 976.94L-65 1008.09V1024.67L46.4431 994.801L121.345 1069.7L110.019 1081.02L41.6641 1012.66L-65 1041.25V1057.83L36.8722 1030.54Z" fill="#1A222B"/>
<path d="M30.7478 1114.99L42.0612 1126.32H42.0741L53.4003 1114.99L64.7137 1103.67L76.04 1092.34L64.7137 1081.02L32.0931 1048.4L-65 1074.4V1090.98L27.3013 1066.26L53.4003 1092.34L42.0741 1103.67L22.5222 1084.12L-65 1107.56V1124.14L17.7303 1101.98L30.7478 1114.99Z" fill="#1A222B"/>
<path d="M225.421 1151.13L165.881 1091.59L154.568 1080.26L143.242 1091.59L131.915 1102.91L120.589 1114.24L131.915 1125.57L171.839 1165.49L166.394 1185.8H182.973L189.7 1160.7L143.242 1114.24L154.568 1102.91L207.56 1155.92L199.553 1185.8H216.132L225.421 1151.13Z" fill="#1A222B"/>
<path d="M929.583 931.699L960 923.551V906.971L934.375 913.839L720.957 700.421L749.67 593.219H733.091L703.084 705.2L929.583 931.699Z" fill="#1A222B"/>
<path d="M901.267 744.842L889.954 733.516L855.975 767.494L856.731 768.25L867.302 778.808L948.725 860.244L960 857.22V840.641L953.517 842.383L878.628 767.494L889.941 756.168L958.296 824.523L960 824.062V803.574L901.267 744.842Z" fill="#1A222B"/>
<path d="M957.899 710.863L946.573 722.189L935.246 733.516L923.92 744.842L935.246 756.168L960 780.922V758.269L946.573 744.842L957.899 733.516L960 735.617V712.964L957.899 710.863Z" fill="#1A222B"/>
<path d="M917.45 647.762L960 690.325V667.672L935.31 642.983L948.635 593.219H932.056L917.45 647.762Z" fill="#1A222B"/>
<path d="M960 645.02V612.694L953.171 638.191L960 645.02Z" fill="#1A222B"/>
<path d="M774.539 686.058L834.079 745.598L845.405 756.924L856.731 745.598L868.057 734.272L879.371 722.945H879.384L868.057 711.619L828.134 671.695L849.159 593.219H832.58L810.26 676.487L856.731 722.945L845.405 734.272L792.4 681.266L816 593.219H799.421L774.539 686.058Z" fill="#1A222B"/>
<path d="M845.994 666.916L901.267 722.189L912.594 733.516L923.92 722.189L935.246 710.863L946.573 699.537L935.246 688.211L899.576 652.553L915.477 593.219H898.897L881.716 657.333L923.92 699.537L912.594 710.863L863.855 662.124L882.318 593.219H865.738L845.994 666.916Z" fill="#1A222B"/>
<path d="M939.154 895.978L960 890.392V873.812L943.946 878.105L756.678 690.837L782.842 593.219H766.249L738.818 695.629L939.154 895.978Z" fill="#1A222B"/>
<path d="M691.309 625.468L677.805 611.976L659.944 616.755L699.535 656.359L699.547 656.346L699.586 656.397L716.537 593.219H699.957L691.309 625.468Z" fill="#1A222B"/>
<path d="M598.124 600.227L611.205 613.309L676.933 679.037L690.002 692.118L694.794 674.258L664.006 643.457L629.066 608.517L686.171 593.219H624.287L615.984 595.448L598.124 600.227Z" fill="#1A222B"/>
<path d="M208.444 996.71L284.166 714.105L271.098 701.036L190.584 1001.49L374.892 1185.8H397.544L208.444 996.71Z" fill="#1A222B"/>
<path d="M704.467 1134.41L512.664 1185.8H574.536L717.549 1147.47L704.467 1134.41Z" fill="#1A222B"/>
<path d="M691.386 1121.32L682.968 1112.91L678.317 1108.26L665.236 1095.17L654.653 1084.59L652.167 1082.09L441.017 1138.67L366.115 1063.78L377.441 1052.46L445.796 1120.81L639.085 1069.02L630.027 1059.97L626.004 1055.94L612.935 1042.86L601.711 1031.65L599.853 1029.79L460.159 1067.22L434.073 1041.13L445.399 1029.8L464.951 1049.36L586.772 1016.71L573.703 1003.64L469.73 1031.5L456.725 1018.48L445.399 1007.15L434.073 1018.48L422.746 1029.8L411.42 1041.13L422.746 1052.46L455.38 1085.08L595.074 1047.65L608.143 1060.73L450.588 1102.95L388.768 1041.13L377.454 1029.8L343.475 1063.78L344.231 1064.54L354.802 1075.1L436.225 1156.53L647.375 1099.95L660.457 1113.03L431.446 1174.39L244.178 987.139L305.538 758.128L318.619 771.197L262.039 982.347L321.579 1041.89L332.905 1053.21L344.231 1041.89L355.558 1030.56L366.871 1019.23H366.884L355.558 1007.91L315.634 967.984L357.851 810.429L370.92 823.511L333.494 963.205L388.768 1018.48L400.094 1029.8L411.42 1018.48L422.746 1007.15L434.073 995.826L422.746 984.5L387.076 948.843L410.152 862.743L423.233 875.811L404.95 944.051L474.522 1013.64L560.622 990.56L552.46 982.386L547.553 977.478L534.471 964.41L524.132 954.07L521.39 951.328L488.884 960.041L458.532 929.701L462.465 915.043L490.384 942.962L508.244 938.17L467.244 897.183L464.694 894.62L454.163 884.101L440.671 934.48L484.093 977.901L516.611 969.189L529.679 982.27L479.313 995.762L422.81 939.272L441.094 871.032L435.994 865.933L428.012 857.951L414.943 844.869L407.679 837.617L401.862 831.8L397.595 847.701L396.353 848.943L397.07 849.661L369.216 953.622L411.42 995.826L400.094 1007.15L351.355 958.413L388.78 818.719L385.039 814.978L375.712 805.637L362.63 792.568L356.723 786.662L349.561 779.487L297.76 972.776L344.231 1019.23L332.905 1030.56L279.9 977.555L336.48 766.418L332.188 762.126L323.398 753.337L310.329 740.255L303.872 733.81L297.248 727.186L226.318 991.918L420.197 1185.8H450.78L691.386 1121.32Z" fill="#1A222B"/>
<path d="M582.877 609.196L282.424 689.71L295.492 702.779L578.098 627.057L791.516 840.474L715.794 1123.08L728.862 1136.15L809.376 835.695L582.877 609.196Z" fill="#1A222B"/>
<path d="M573.306 644.93L308.574 715.86L316.992 724.278L321.656 728.941L334.724 742.01L345.308 752.593L347.806 755.092L558.943 698.512L633.845 773.401L622.519 784.727L554.164 716.372L360.875 768.161L369.933 777.219L373.956 781.242L387.038 794.324L398.249 805.535L400.107 807.392L539.801 769.967L565.9 796.053L554.574 807.38L535.022 787.828L413.188 820.474L426.257 833.543L530.23 805.688L543.248 818.706L554.561 830.032H554.574L565.9 818.706L577.214 807.38L588.54 796.053L577.214 784.727L544.593 752.106L404.898 789.532L391.817 776.45L549.372 734.233L611.193 796.053L622.519 807.38L656.497 773.401L655.742 772.658L645.171 762.087L563.735 680.651L352.585 737.231L339.516 724.15L568.527 662.791L755.782 850.058L694.422 1079.06L681.354 1065.99L737.921 854.837L678.381 795.297L667.068 783.971L655.742 795.297L644.415 806.624L633.089 817.95L644.415 829.276L684.339 869.2L642.122 1026.76L629.04 1013.67L666.478 873.979L611.193 818.706L599.866 807.38L588.54 818.706L577.214 830.032L565.9 841.358H565.887L577.214 852.685L612.884 888.342L589.808 974.455L576.74 961.373L595.023 893.134L525.438 823.549L439.338 846.624L447.513 854.799L452.42 859.706L465.489 872.775L475.828 883.114L478.57 885.856L511.088 877.144L541.428 907.496L537.508 922.141L509.577 894.223L491.729 899.015L532.716 940.002L535.278 942.564L545.798 953.083L559.289 902.705L515.867 859.283L483.362 867.996L470.281 854.914L520.659 841.422L577.163 897.913L558.879 966.165L563.966 971.251L571.948 979.234L585.029 992.315L592.281 999.567L598.098 1005.38L602.365 989.484L603.608 988.241L602.89 987.523L630.744 883.563L588.54 841.358L599.866 830.032L648.605 878.771L611.18 1018.47L614.921 1022.21L624.261 1031.55L637.33 1044.62L643.237 1050.52L650.412 1057.7L702.2 864.408L655.742 817.95L667.068 806.624L720.06 859.629L663.48 1070.77L667.772 1075.06L676.562 1083.85L689.643 1096.93L696.088 1103.37L702.712 1110L773.655 845.266L573.306 644.93Z" fill="#1A222B"/>
<path d="M103.484 891.737L85.6238 896.516L98.7053 909.598L164.433 975.326L177.502 988.407L182.294 970.547L151.506 939.745L116.566 904.806L188.521 885.523L178.796 921.757L165.305 908.265L147.444 913.044L187.035 952.648L187.048 952.635L187.086 952.686L206.382 880.744L211.173 862.883L193.313 867.662L103.484 891.737Z" fill="#1A222B"/>
<path d="M277.568 676.577L295.441 671.785L367.384 652.489L367.332 652.451V652.438L327.742 612.847L322.95 630.708L336.454 644.212L300.22 653.924L316.492 593.219H299.913L282.36 658.716L277.568 676.577Z" fill="#1A222B"/>
<path d="M354.443 616.909L385.231 647.698L403.092 642.906L390.023 629.837L353.405 593.219H330.752L354.443 616.909Z" fill="#1A222B"/>
<path d="M191.967 838.117L-65 906.971V923.551L205.049 851.186L191.967 838.117Z" fill="#1A222B"/>
<path d="M-57.1203 788.789L82.5616 751.364L95.6431 764.445L-61.9122 806.662L-65 803.574V824.062L126.585 772.735L117.527 763.676L113.504 759.653L100.435 746.572L89.2112 735.361L87.3534 733.503L-52.3413 770.928L-65 758.27V780.922L-57.1203 788.789Z" fill="#1A222B"/>
<path d="M-47.5494 753.068L74.2719 720.421L61.2031 707.353L-42.7703 735.207L-55.775 722.189L-65 712.964V735.617L-47.5494 753.068Z" fill="#1A222B"/>
<path d="M-37.9784 717.346L48.1216 694.271L39.9472 686.097L35.0528 681.189L21.9712 668.121L11.6316 657.781L8.88969 655.039L-23.6156 663.752L-53.9684 633.412L-50.0478 618.754L-22.1166 646.673L-4.25594 641.881L-45.2559 600.893L-47.8184 598.331L-52.9306 593.219H-59.7853L-65 612.694V645.02L-28.4075 681.612L4.11063 672.9L17.1794 685.981L-33.1994 699.473L-65 667.672V690.325L-37.9784 717.346Z" fill="#1A222B"/>
<path d="M170.468 816.618L165.817 811.967L152.736 798.885L142.152 788.302L139.667 785.803L-65 840.641V857.22L134.875 803.664L147.957 816.746L-65 873.813V890.392L178.886 825.035L170.468 816.618Z" fill="#1A222B"/>
<path d="M216.362 839.859L282.462 593.219H265.883L203.294 826.791L216.362 839.859Z" fill="#1A222B"/>
<path d="M150.98 774.477L155.273 778.769L164.062 787.559L177.143 800.64L183.588 807.085L190.212 813.709L249.291 593.219H232.711L181.923 782.767L168.854 769.698L216.132 593.219H199.553L150.98 774.477Z" fill="#1A222B"/>
<path d="M64.6625 601.624L46.379 669.876L51.4656 674.963L59.4478 682.945L72.5293 696.026L79.7812 703.278L85.5981 709.095L89.8647 693.195L91.1075 691.952L90.39 691.234L116.656 593.219H100.076L77.3084 678.166L64.2397 665.084L82.5231 596.845L78.8972 593.219H56.2446L64.6625 601.624Z" fill="#1A222B"/>
<path d="M25.0078 625.852L-2.92343 597.934L-20.7712 602.726L20.216 643.713L22.7785 646.275L33.2975 656.794L46.7891 606.416L33.5922 593.219H10.9525L28.9284 611.208L25.0078 625.852Z" fill="#1A222B"/>
<path d="M98.6797 722.177L102.421 725.918L111.761 735.258L124.83 748.327L130.737 754.233L137.912 761.408L182.973 593.219H166.394L129.622 730.466L116.54 717.385L149.814 593.219H133.235L98.6797 722.177Z" fill="#1A222B"/>
<path d="M574.536 593.219H512.664L421.875 617.55L397.544 593.219H374.892L417.083 635.41L574.536 593.219Z" fill="#1A222B"/>
<path d="M450.78 593.219H420.197L426.654 599.689L450.78 593.219Z" fill="#1A222B"/>
</g>
<g clip-path="url(#clip3)">
<path d="M1808.6 997.325L1758.09 1185.8H1774.67L1821.68 1010.39L1808.6 997.325Z" fill="#1A222B"/>
<path d="M1926.28 1115.01L1922.54 1111.27L1913.21 1101.94L1900.13 1088.86L1894.22 1082.95L1887.06 1075.78L1857.58 1185.8H1874.16L1895.35 1106.72L1908.42 1119.8L1890.74 1185.8H1907.32L1926.28 1115.01Z" fill="#1A222B"/>
<path d="M1873.98 1062.71L1869.69 1058.42L1860.9 1049.63L1847.83 1036.54L1841.37 1030.1L1834.75 1023.48L1791.25 1185.8H1807.84L1843.04 1054.42L1856.12 1067.49L1824.42 1185.8H1841L1873.98 1062.71Z" fill="#1A222B"/>
<path d="M1819.92 985.999L1832.99 999.068L1985 958.35V941.757L1819.92 985.999Z" fill="#1A222B"/>
<path d="M1854.49 1020.57L1859.16 1025.23L1872.22 1038.3L1882.81 1048.88L1885.31 1051.38L1985 1024.67V1008.09L1890.08 1033.52L1877.02 1020.44L1985 991.508V974.929L1846.07 1012.15L1854.49 1020.57Z" fill="#1A222B"/>
<path d="M1942.4 1085.82L1929.32 1072.74L1985 1057.83V1041.25L1898.37 1064.45L1907.43 1073.51L1911.46 1077.53L1924.54 1090.61L1935.75 1101.82L1937.61 1103.68L1985 1090.98V1074.4L1942.4 1085.82Z" fill="#1A222B"/>
<path d="M1904.88 948.778L1904.83 948.74V948.727L1865.24 909.136L1860.46 926.997L1873.95 940.501L1837.72 950.213L1857 878.258L1891.94 913.198L1922.74 943.986L1940.59 939.207L1927.52 926.126L1861.8 860.398L1848.71 847.316L1843.92 865.177L1819.86 955.005L1815.07 972.866L1832.94 968.074L1904.88 948.778Z" fill="#1A222B"/>
<path d="M1336.21 1143.61L1331.42 1161.47L1324.91 1185.8H1341.49L1344.5 1174.55L1355.75 1185.8H1378.41L1349.3 1156.69L1336.21 1143.61Z" fill="#1A222B"/>
<path d="M1095.38 905.485L960 941.757V958.349L1090.6 923.345L1304.02 1136.76L1290.88 1185.8H1307.46L1321.88 1131.98L1095.38 905.485Z" fill="#1A222B"/>
<path d="M1037.94 1119.84L960 1140.72V1151.07L960.013 1151.09L964.92 1155.99L977.989 1169.06L988.328 1179.4L991.07 1182.15L1023.59 1173.43L1035.95 1185.8H1058.59L1028.37 1155.57L995.849 1164.28L982.781 1151.2L1033.16 1137.71L1081.24 1185.8H1103.9L1037.94 1119.84Z" fill="#1A222B"/>
<path d="M1085.81 941.219L960 974.929V991.508L1081.03 959.08L1268.28 1146.35L1257.71 1185.8H1274.29L1286.15 1141.56L1085.81 941.219Z" fill="#1A222B"/>
<path d="M1178.98 1170.28L1123.69 1115L1112.37 1103.67L1101.04 1115L1089.71 1126.32L1078.4 1137.65H1078.39L1089.71 1148.97L1125.38 1184.63L1125.08 1185.8H1141.66L1143.24 1179.85L1101.04 1137.65L1112.37 1126.32L1161.1 1175.06L1158.23 1185.8H1174.81L1178.98 1170.28Z" fill="#1A222B"/>
<path d="M1061.87 1030.54L1123.69 1092.34L1135.02 1103.67L1169 1069.7L1168.24 1068.95L1157.67 1058.38L1076.24 976.94L960 1008.09V1024.67L1071.44 994.801L1146.35 1069.7L1135.02 1081.02L1066.66 1012.66L960 1041.25V1057.83L1061.87 1030.54Z" fill="#1A222B"/>
<path d="M1055.75 1114.99L1067.06 1126.32H1067.07L1078.4 1114.99L1089.71 1103.67L1101.04 1092.34L1089.71 1081.02L1057.09 1048.4L960 1074.4V1090.98L1052.3 1066.26L1078.4 1092.34L1067.07 1103.67L1047.52 1084.12L960 1107.56V1124.14L1042.73 1101.98L1055.75 1114.99Z" fill="#1A222B"/>
<path d="M1250.42 1151.13L1190.88 1091.59L1179.57 1080.26L1168.24 1091.59L1156.92 1102.91L1145.59 1114.24L1156.92 1125.57L1196.84 1165.49L1191.39 1185.8H1207.97L1214.7 1160.7L1168.24 1114.24L1179.57 1102.91L1232.56 1155.92L1224.55 1185.8H1241.13L1250.42 1151.13Z" fill="#1A222B"/>
<path d="M1954.58 931.699L1985 923.551V906.971L1959.38 913.839L1745.96 700.421L1774.67 593.219H1758.09L1728.08 705.2L1954.58 931.699Z" fill="#1A222B"/>
<path d="M1926.27 744.842L1914.95 733.516L1880.98 767.494L1881.73 768.25L1892.3 778.808L1973.73 860.244L1985 857.22V840.641L1978.52 842.383L1903.63 767.494L1914.94 756.168L1983.3 824.523L1985 824.062V803.574L1926.27 744.842Z" fill="#1A222B"/>
<path d="M1799.54 686.058L1859.08 745.598L1870.4 756.924L1881.73 745.598L1893.06 734.272L1904.37 722.945H1904.38L1893.06 711.619L1853.13 671.695L1874.16 593.219H1857.58L1835.26 676.487L1881.73 722.945L1870.4 734.272L1817.4 681.266L1841 593.219H1824.42L1799.54 686.058Z" fill="#1A222B"/>
<path d="M1870.99 666.916L1926.27 722.189L1937.59 733.516L1948.92 722.189L1960.25 710.863L1971.57 699.537L1960.25 688.211L1924.58 652.553L1940.48 593.219H1923.9L1906.72 657.333L1948.92 699.537L1937.59 710.863L1888.86 662.124L1907.32 593.219H1890.74L1870.99 666.916Z" fill="#1A222B"/>
<path d="M1964.15 895.978L1985 890.392V873.812L1968.95 878.105L1781.68 690.837L1807.84 593.219H1791.25L1763.82 695.629L1964.15 895.978Z" fill="#1A222B"/>
<path d="M1716.31 625.468L1702.8 611.976L1684.94 616.755L1724.53 656.359L1724.55 656.346L1724.59 656.397L1741.54 593.219H1724.96L1716.31 625.468Z" fill="#1A222B"/>
<path d="M1623.12 600.227L1636.21 613.309L1701.93 679.037L1715 692.118L1719.79 674.258L1689.01 643.457L1654.07 608.517L1711.17 593.219H1649.29L1640.98 595.448L1623.12 600.227Z" fill="#1A222B"/>
<path d="M1233.44 996.71L1309.17 714.105L1296.1 701.036L1215.58 1001.49L1399.89 1185.8H1422.54L1233.44 996.71Z" fill="#1A222B"/>
<path d="M1729.47 1134.41L1537.66 1185.8H1599.54L1742.55 1147.47L1729.47 1134.41Z" fill="#1A222B"/>
<path d="M1716.39 1121.32L1707.97 1112.91L1703.32 1108.26L1690.24 1095.17L1679.65 1084.59L1677.17 1082.09L1466.02 1138.67L1391.12 1063.78L1402.44 1052.46L1470.8 1120.81L1664.09 1069.02L1655.03 1059.97L1651 1055.94L1637.94 1042.86L1626.71 1031.65L1624.85 1029.79L1485.16 1067.22L1459.07 1041.13L1470.4 1029.8L1489.95 1049.36L1611.77 1016.71L1598.7 1003.64L1494.73 1031.5L1481.73 1018.48L1470.4 1007.15L1459.07 1018.48L1447.75 1029.8L1436.42 1041.13L1447.75 1052.46L1480.38 1085.08L1620.07 1047.65L1633.14 1060.73L1475.59 1102.95L1413.77 1041.13L1402.45 1029.8L1368.48 1063.78L1369.23 1064.54L1379.8 1075.1L1461.23 1156.53L1672.38 1099.95L1685.46 1113.03L1456.45 1174.39L1269.18 987.139L1330.54 758.128L1343.62 771.197L1287.04 982.347L1346.58 1041.89L1357.91 1053.21L1369.23 1041.89L1380.56 1030.56L1391.87 1019.23H1391.88L1380.56 1007.91L1340.63 967.984L1382.85 810.429L1395.92 823.511L1358.49 963.205L1413.77 1018.48L1425.09 1029.8L1436.42 1018.48L1447.75 1007.15L1459.07 995.826L1447.75 984.5L1412.08 948.843L1435.15 862.743L1448.23 875.811L1429.95 944.051L1499.52 1013.64L1585.62 990.56L1577.46 982.386L1572.55 977.478L1559.47 964.41L1549.13 954.07L1546.39 951.328L1513.88 960.041L1483.53 929.701L1487.47 915.043L1515.38 942.962L1533.24 938.17L1492.24 897.183L1489.69 894.62L1479.16 884.101L1465.67 934.48L1509.09 977.901L1541.61 969.189L1554.68 982.27L1504.31 995.762L1447.81 939.272L1466.09 871.032L1460.99 865.933L1453.01 857.951L1439.94 844.869L1432.68 837.617L1426.86 831.8L1422.6 847.701L1421.35 848.943L1422.07 849.661L1394.22 953.622L1436.42 995.826L1425.09 1007.15L1376.36 958.413L1413.78 818.719L1410.04 814.978L1400.71 805.637L1387.63 792.568L1381.72 786.662L1374.56 779.487L1322.76 972.776L1369.23 1019.23L1357.91 1030.56L1304.9 977.555L1361.48 766.418L1357.19 762.126L1348.4 753.337L1335.33 740.255L1328.87 733.81L1322.25 727.186L1251.32 991.918L1445.2 1185.8H1475.78L1716.39 1121.32Z" fill="#1A222B"/>
<path d="M1607.88 609.196L1307.42 689.71L1320.49 702.779L1603.1 627.057L1816.52 840.474L1740.79 1123.08L1753.86 1136.15L1834.38 835.695L1607.88 609.196Z" fill="#1A222B"/>
<path d="M1598.31 644.93L1333.57 715.86L1341.99 724.278L1346.66 728.941L1359.72 742.01L1370.31 752.593L1372.81 755.092L1583.94 698.512L1658.85 773.401L1647.52 784.727L1579.16 716.372L1385.87 768.161L1394.93 777.219L1398.96 781.242L1412.04 794.324L1423.25 805.535L1425.11 807.392L1564.8 769.967L1590.9 796.053L1579.57 807.38L1560.02 787.828L1438.19 820.474L1451.26 833.543L1555.23 805.688L1568.25 818.706L1579.56 830.032H1579.57L1590.9 818.706L1602.21 807.38L1613.54 796.053L1602.21 784.727L1569.59 752.106L1429.9 789.532L1416.82 776.45L1574.37 734.233L1636.19 796.053L1647.52 807.38L1681.5 773.401L1680.74 772.658L1670.17 762.087L1588.74 680.651L1377.59 737.231L1364.52 724.15L1593.53 662.791L1780.78 850.058L1719.42 1079.06L1706.35 1065.99L1762.92 854.837L1703.38 795.297L1692.07 783.971L1680.74 795.297L1669.42 806.624L1658.09 817.95L1669.42 829.276L1709.34 869.2L1667.12 1026.76L1654.04 1013.67L1691.48 873.979L1636.19 818.706L1624.87 807.38L1613.54 818.706L1602.21 830.032L1590.9 841.358H1590.89L1602.21 852.685L1637.88 888.342L1614.81 974.455L1601.74 961.373L1620.02 893.134L1550.44 823.549L1464.34 846.624L1472.51 854.799L1477.42 859.706L1490.49 872.775L1500.83 883.114L1503.57 885.856L1536.09 877.144L1566.43 907.496L1562.51 922.141L1534.58 894.223L1516.73 899.015L1557.72 940.002L1560.28 942.564L1570.8 953.083L1584.29 902.705L1540.87 859.283L1508.36 867.996L1495.28 854.914L1545.66 841.422L1602.16 897.913L1583.88 966.165L1588.97 971.251L1596.95 979.234L1610.03 992.315L1617.28 999.567L1623.1 1005.38L1627.36 989.484L1628.61 988.241L1627.89 987.523L1655.74 883.563L1613.54 841.358L1624.87 830.032L1673.61 878.771L1636.18 1018.47L1639.92 1022.21L1649.26 1031.55L1662.33 1044.62L1668.24 1050.52L1675.41 1057.7L1727.2 864.408L1680.74 817.95L1692.07 806.624L1745.06 859.629L1688.48 1070.77L1692.77 1075.06L1701.56 1083.85L1714.64 1096.93L1721.09 1103.37L1727.71 1110L1798.65 845.266L1598.31 644.93Z" fill="#1A222B"/>
<path d="M1128.48 891.737L1110.62 896.516L1123.71 909.598L1189.43 975.326L1202.5 988.407L1207.29 970.547L1176.51 939.745L1141.57 904.806L1213.52 885.523L1203.8 921.757L1190.3 908.265L1172.44 913.044L1212.03 952.648L1212.05 952.635L1212.09 952.686L1231.38 880.744L1236.17 862.883L1218.31 867.662L1128.48 891.737Z" fill="#1A222B"/>
<path d="M1302.57 676.577L1320.44 671.785L1392.38 652.489L1392.33 652.451V652.438L1352.74 612.847L1347.95 630.708L1361.45 644.212L1325.22 653.924L1341.49 593.219H1324.91L1307.36 658.716L1302.57 676.577Z" fill="#1A222B"/>
<path d="M1379.44 616.909L1410.23 647.698L1428.09 642.906L1415.02 629.837L1378.4 593.219H1355.75L1379.44 616.909Z" fill="#1A222B"/>
<path d="M1216.97 838.117L960 906.971V923.551L1230.05 851.186L1216.97 838.117Z" fill="#1A222B"/>
<path d="M967.88 788.789L1107.56 751.364L1120.64 764.445L963.088 806.662L960 803.574V824.062L1151.59 772.735L1142.53 763.676L1138.5 759.653L1125.43 746.572L1114.21 735.361L1112.35 733.503L972.659 770.928L960 758.27V780.922L967.88 788.789Z" fill="#1A222B"/>
<path d="M977.451 753.068L1099.27 720.421L1086.2 707.353L982.23 735.207L969.225 722.189L960 712.964V735.617L977.451 753.068Z" fill="#1A222B"/>
<path d="M987.022 717.346L1073.12 694.271L1064.95 686.097L1060.05 681.189L1046.97 668.121L1036.63 657.781L1033.89 655.039L1001.38 663.752L971.032 633.412L974.952 618.754L1002.88 646.673L1020.74 641.881L979.744 600.893L977.182 598.331L972.069 593.219H965.215L960 612.694V645.02L996.592 681.612L1029.11 672.9L1042.18 685.981L991.801 699.473L960 667.672V690.325L987.022 717.346Z" fill="#1A222B"/>
<path d="M1195.47 816.618L1190.82 811.967L1177.74 798.885L1167.15 788.302L1164.67 785.803L960 840.641V857.22L1159.88 803.664L1172.96 816.746L960 873.813V890.392L1203.89 825.035L1195.47 816.618Z" fill="#1A222B"/>
<path d="M1241.36 839.859L1307.46 593.219H1290.88L1228.29 826.791L1241.36 839.859Z" fill="#1A222B"/>
<path d="M1175.98 774.477L1180.27 778.769L1189.06 787.559L1202.14 800.64L1208.59 807.085L1215.21 813.709L1274.29 593.219H1257.71L1206.92 782.767L1193.85 769.698L1241.13 593.219H1224.55L1175.98 774.477Z" fill="#1A222B"/>
<path d="M1089.66 601.624L1071.38 669.876L1076.47 674.963L1084.45 682.945L1097.53 696.026L1104.78 703.278L1110.6 709.095L1114.86 693.195L1116.11 691.952L1115.39 691.234L1141.66 593.219H1125.08L1102.31 678.166L1089.24 665.084L1107.52 596.845L1103.9 593.219H1081.24L1089.66 601.624Z" fill="#1A222B"/>
<path d="M1050.01 625.852L1022.08 597.934L1004.23 602.726L1045.22 643.713L1047.78 646.275L1058.3 656.794L1071.79 606.416L1058.59 593.219H1035.95L1053.93 611.208L1050.01 625.852Z" fill="#1A222B"/>
<path d="M1123.68 722.177L1127.42 725.918L1136.76 735.258L1149.83 748.327L1155.74 754.233L1162.91 761.408L1207.97 593.219H1191.39L1154.62 730.466L1141.54 717.385L1174.81 593.219H1158.24L1123.68 722.177Z" fill="#1A222B"/>
<path d="M1599.54 593.219H1537.66L1446.88 617.55L1422.54 593.219H1399.89L1442.08 635.41L1599.54 593.219Z" fill="#1A222B"/>
<path d="M1475.78 593.219H1445.2L1451.65 599.689L1475.78 593.219Z" fill="#1A222B"/>
</g>
</g>
<defs>
<clipPath id="clip0">
<rect width="1025" height="592.578" fill="white" transform="translate(-65)"/>
</clipPath>
<clipPath id="clip1">
<rect width="1025" height="592.578" fill="white" transform="translate(960)"/>
</clipPath>
<clipPath id="clip2">
<rect width="1025" height="592.578" fill="white" transform="translate(-65 593.219)"/>
</clipPath>
<clipPath id="clip3">
<rect width="1025" height="592.578" fill="white" transform="translate(960 593.219)"/>
</clipPath>
</defs>
</svg>
