<svg width="16" height="16" viewBox="0 0 16 16" fill="none" xmlns="http://www.w3.org/2000/svg">
    <path fill-rule="evenodd" clip-rule="evenodd" d="M3.2 0C1.43269 0 0 1.43269 0 3.2C0 4.96731 1.43269 6.4 3.2 6.4C4.96731 6.4 6.4 4.96731 6.4 3.2C6.4 1.43269 4.96731 0 3.2 0ZM3.2 9.59998C1.43269 9.59998 0 11.0327 0 12.8C0 14.5673 1.43269 16 3.2 16C4.96731 16 6.4 14.5673 6.4 12.8C6.4 11.0327 4.96731 9.59998 3.2 9.59998ZM9.6001 3.2C9.6001 1.43269 11.0328 0 12.8001 0C14.5674 0 16.0001 1.43269 16.0001 3.2C16.0001 4.96731 14.5674 6.4 12.8001 6.4C11.0328 6.4 9.6001 4.96731 9.6001 3.2ZM12.8001 9.59998C11.0328 9.59998 9.6001 11.0327 9.6001 12.8C9.6001 14.5673 11.0328 16 12.8001 16C14.5674 16 16.0001 14.5673 16.0001 12.8C16.0001 11.0327 14.5674 9.59998 12.8001 9.59998Z" fill="#FFBF00"/>
</svg>
