<svg width="40" height="40" viewBox="0 0 40 40" fill="none" xmlns="http://www.w3.org/2000/svg">
    <path d="M0 4C0 1.79086 1.79086 0 4 0H36C38.2091 0 40 1.79086 40 4V36C40 38.2091 38.2091 40 36 40H4C1.79086 40 0 38.2091 0 36V4Z" fill="#190134"/>
    <path d="M15.5387 29.5222C14.3127 29.5222 13.4256 29.305 12.8794 28.8724C12.3332 28.4398 12.0421 27.766 12.0062 26.851C11.9963 26.6098 11.9983 26.3646 12.0122 26.1114C12.0262 25.8582 12.07 25.5771 12.1238 25.2642L14.0117 14.2581C14.2589 12.8128 14.7612 11.7443 15.4909 11.0466C16.2205 10.3489 17.3568 10 18.8977 10H28L27.3362 13.971H20.9391C20.3629 13.971 19.9742 14.0607 19.7769 14.2421C19.5795 14.4216 19.43 14.7904 19.3323 15.3426L17.7594 24.2156C17.7395 24.3352 17.7256 24.4389 17.7176 24.5226C17.7096 24.6063 17.7056 24.698 17.7096 24.7937C17.7196 25.0588 17.8113 25.2522 17.9847 25.3718C18.1581 25.4914 18.4731 25.5532 18.9316 25.5532H25.3985L24.7127 29.5242H15.5387V29.5222Z" fill="#FCFCFC"/>
</svg>
