<svg xmlns="http://www.w3.org/2000/svg" width="0" height="0" viewBox="0 0 100 100" x="100px" y="100px">
  <g data-name="Award, leaderboard, rank, ranking">
    <rect x="36.12" y="54.34" width="27.05" height="35.66" rx="2.05" />
    <rect x="6.61" y="62.95" width="27.05" height="27.05" rx="2.05" />
    <rect x="65.63" y="70.98" width="27.05" height="19.02" rx="2.05" />
    <path d="M66.43,19.34a2.49,2.49,0,0,0-2-1.71L56,16.39,52.27,8.76A2.48,2.48,0,0,0,50,7.36h0a2.5,2.5,0,0,0-2.24,1.39L44,16.35l-8.41,1.2a2.51,2.51,0,0,0-2,1.7,2.48,2.48,0,0,0,.62,2.56l6.07,6-1.46,8.37a2.5,2.5,0,0,0,3.62,2.64L50,34.84l7.51,4a2.44,2.44,0,0,0,1.17.29,2.49,2.49,0,0,0,2.46-2.91l-1.41-8.38,6.1-5.91A2.51,2.51,0,0,0,66.43,19.34Z" />
  </g>
</svg>