<svg xmlns="http://www.w3.org/2000/svg" version="1.1" x="0px" y="0px" viewBox="0 0 90 112.5" enableBackground="new 0 0 90 90">
  <rect x="39.633" y="30.843" fillRule="evenodd" clipRule="evenodd" width="10.703" height="26.136" />
  <rect x="26.571" y="37.619" fillRule="evenodd" clipRule="evenodd" width="10.708" height="19.36" />
  <rect x="52.689" y="44.4" fillRule="evenodd" clipRule="evenodd" width="10.703" height="12.579" />
  <path d="M44.314,13.146l-2.098,3.557L38.2,17.63c-0.577,0.135-0.802,0.838-0.399,1.276l2.801,3.063l-0.463,4.656  c-0.057,0.621,0.6,1.047,1.146,0.75l3.697-2.042l3.705,2.042c0.541,0.296,1.203-0.13,1.145-0.75l-0.469-4.656l2.803-3.063  c0.4-0.438,0.182-1.141-0.396-1.276l-4.016-0.927l-2.104-3.557C45.248,12.464,44.629,12.625,44.314,13.146z" />
  <path d="M77.461,19.094c2.713,2.552,3.994,5.468,3.85,8.126c-0.146,2.64-1.725,4.962-4.172,6.036  c-2.449,1.068-4.615,0.719-6.199-0.62c-1.594-1.345-2.629-3.631-2.619-6.527c0.006-0.588,0.443-0.662,0.771-0.536  c2.176,0.817,3.979,1.521,5.484,2.926c-0.652-3.323,0.941-6.703,1.973-9.208C76.732,18.843,77.18,18.829,77.461,19.094z" />
  <path d="M83.299,47.297c0.84,3.63,0.281,6.765-1.322,8.896c-1.588,2.109-4.188,3.167-6.818,2.693  c-2.629-0.475-4.238-1.969-4.813-3.959c-0.578-2.005-0.166-4.485,1.453-6.879c0.328-0.486,0.74-0.303,0.943-0.017  c1.35,1.886,2.459,3.474,2.932,5.479c1.303-3.124,4.506-5.046,6.756-6.557C82.83,46.682,83.211,46.922,83.299,47.297z" />
  <path d="M77.508,61.761c-0.797,3.64-2.646,6.229-5.006,7.468c-2.338,1.229-5.145,1.068-7.316-0.489  c-2.172-1.552-2.984-3.588-2.646-5.635c0.334-2.057,1.771-4.121,4.26-5.595c0.506-0.301,0.797,0.043,0.859,0.386  c0.412,2.286,0.73,4.198,0.297,6.209c2.516-2.267,6.234-2.625,8.918-3.032C77.346,61.005,77.592,61.381,77.508,61.761z" />
  <circle fillRule="evenodd" clipRule="evenodd" cx="44.982" cy="73.797" r="3.422" />
  <path d="M71.086,23.813c-4.85-1.532-5.275-4.771-5.275-9.975c0-1.072,0.182-1.182,1-1.009c5.463,1.155,7.66,6.186,5.65,10.5  C72.127,24.037,71.721,24.015,71.086,23.813z" />
  <path d="M82.529,32.234c2.088,3.089,2.697,6.213,1.969,8.776c-0.719,2.543-2.766,4.464-5.391,4.97  c-2.625,0.505-4.662-0.313-5.912-1.958c-1.26-1.667-1.771-4.125-1.125-6.943c0.135-0.573,0.584-0.552,0.875-0.358  c1.938,1.276,3.547,2.358,4.709,4.056c0.088-3.38,2.391-6.328,3.941-8.547C81.873,31.833,82.314,31.917,82.529,32.234z" />
  <path d="M66.795,72.964c-2.412,2.844-5.256,4.265-7.918,4.255c-2.645-0.011-5.047-1.469-6.238-3.86  c-1.193-2.391-0.953-4.573,0.301-6.219c1.262-1.661,3.496-2.812,6.381-2.948c0.588-0.027,0.688,0.412,0.578,0.746  c-0.703,2.213-1.318,4.046-2.641,5.624c3.281-0.822,6.74,0.6,9.297,1.5C67.008,72.22,67.045,72.671,66.795,72.964z" />
  <path d="M12.507,19.094c-2.719,2.552-3.994,5.468-3.849,8.126c0.146,2.64,1.724,4.962,4.172,6.036  c2.448,1.068,4.614,0.719,6.197-0.62c1.595-1.345,2.631-3.631,2.614-6.527c0-0.588-0.442-0.662-0.771-0.536  c-2.172,0.817-3.974,1.521-5.483,2.926c0.656-3.323-0.943-6.703-1.97-9.208C13.238,18.843,12.789,18.829,12.507,19.094z" />
  <path d="M6.669,47.297c-0.839,3.63-0.281,6.765,1.317,8.896c1.589,2.109,4.192,3.167,6.822,2.693  c2.631-0.475,4.235-1.969,4.808-3.959c0.578-2.005,0.167-4.485-1.453-6.879c-0.328-0.486-0.734-0.303-0.938-0.017  c-1.354,1.886-2.463,3.474-2.932,5.479c-1.303-3.124-4.511-5.046-6.762-6.557C7.138,46.682,6.751,46.922,6.669,47.297z" />
  <path d="M12.456,61.761c0.802,3.64,2.651,6.229,5.006,7.468c2.344,1.229,5.146,1.068,7.317-0.489  c2.177-1.552,2.984-3.588,2.65-5.635c-0.339-2.057-1.771-4.121-4.26-5.595c-0.506-0.301-0.798,0.043-0.86,0.386  c-0.411,2.286-0.733,4.198-0.296,6.209c-2.521-2.267-6.24-2.625-8.917-3.032C12.623,61.005,12.372,61.381,12.456,61.761z" />
  <path d="M18.882,23.813c4.844-1.532,5.276-4.771,5.276-9.975c0-1.072-0.183-1.182-1-1.009c-5.468,1.155-7.667,6.186-5.651,10.5  C17.835,24.037,18.243,24.015,18.882,23.813z" />
  <path d="M7.435,32.234c-2.089,3.089-2.692,6.213-1.969,8.776c0.725,2.543,2.771,4.464,5.395,4.97  c2.626,0.505,4.658-0.313,5.912-1.958c1.26-1.667,1.766-4.125,1.12-6.943c-0.13-0.573-0.579-0.552-0.869-0.358  c-1.942,1.276-3.548,2.358-4.71,4.056c-0.093-3.38-2.391-6.328-3.942-8.547C8.096,31.833,7.654,31.917,7.435,32.234z" />
  <path d="M23.169,72.964c2.412,2.844,5.26,4.265,7.921,4.255c2.647-0.011,5.048-1.469,6.24-3.86c1.193-2.391,0.953-4.573-0.303-6.219  c-1.265-1.661-3.495-2.812-6.386-2.948c-0.588-0.027-0.681,0.412-0.577,0.746c0.708,2.213,1.317,4.046,2.646,5.624  c-3.287-0.822-6.738,0.6-9.296,1.5C22.961,72.22,22.918,72.671,23.169,72.964z" />
</svg>