<svg width="100" height="110" viewBox="0 0 100 110" fill="none" xmlns="http://www.w3.org/2000/svg">
  <rect width="1.39074" height="131.818" transform="matrix(0.708048 0.706165 -0.708048 0.706165 96.6514 9)" fill="white"/>
  <rect width="1.39074" height="131.818" transform="matrix(-0.708048 0.706165 -0.708048 -0.706165 97.3181 102.085)" fill="white"/>
  <path d="M59.5541 7.96V22H56.1341V13.22L53.0941 22H50.1341L47.0741 13.2V22H43.6541V7.96H47.8341L51.6541 17.74L55.3941 7.96H59.5541Z" fill="white"/>
  <path d="M56.34 95.36V98.08H52.5V109.5H49.06V98.08H45.26V95.36H56.34Z" fill="white"/>
  <path d="M5.29629 51.61V65.75H1.87629V51.61H5.29629Z" fill="white"/>
  <path d="M99.7696 61.77C99.7696 62.5167 99.5763 63.2033 99.1896 63.83C98.8163 64.4567 98.2563 64.9567 97.5096 65.33C96.7763 65.7033 95.883 65.89 94.8296 65.89C93.243 65.89 91.9363 65.5033 90.9096 64.73C89.883 63.9567 89.323 62.8767 89.2296 61.49H92.8696C92.923 62.0233 93.1096 62.4433 93.4296 62.75C93.763 63.0567 94.183 63.21 94.6896 63.21C95.1296 63.21 95.4763 63.09 95.7296 62.85C95.983 62.61 96.1096 62.29 96.1096 61.89C96.1096 61.53 95.9896 61.23 95.7496 60.99C95.523 60.75 95.2363 60.5567 94.8896 60.41C94.543 60.25 94.063 60.0633 93.4496 59.85C92.5563 59.5433 91.823 59.25 91.2496 58.97C90.6896 58.6767 90.203 58.25 89.7896 57.69C89.3896 57.1167 89.1896 56.3767 89.1896 55.47C89.1896 54.63 89.403 53.9033 89.8296 53.29C90.2563 52.6767 90.843 52.21 91.5896 51.89C92.3496 51.5567 93.2163 51.39 94.1896 51.39C95.763 51.39 97.0096 51.7633 97.9296 52.51C98.863 53.2567 99.3896 54.2833 99.5096 55.59H95.8096C95.743 55.1233 95.5696 54.7567 95.2896 54.49C95.023 54.21 94.6563 54.07 94.1896 54.07C93.7896 54.07 93.463 54.1767 93.2096 54.39C92.9696 54.6033 92.8496 54.9167 92.8496 55.33C92.8496 55.6633 92.9563 55.95 93.1696 56.19C93.3963 56.4167 93.6763 56.6033 94.0096 56.75C94.343 56.8967 94.823 57.0833 95.4496 57.31C96.3563 57.6167 97.0963 57.9233 97.6696 58.23C98.243 58.5233 98.7363 58.9567 99.1496 59.53C99.563 60.1033 99.7696 60.85 99.7696 61.77Z" fill="white"/>
</svg>
