<?xml version="1.0" encoding="UTF-8"?>
<svg width="99px" height="103px" viewBox="0 0 99 103" version="1.1" xmlns="http://www.w3.org/2000/svg" xmlns:xlink="http://www.w3.org/1999/xlink">
    <!-- Generator: Sketch 58 (84663) - https://sketch.com -->
    <title>logo_light</title>
    <desc>Created with Sketch.</desc>
    <g id="Page-1" stroke="none" stroke-width="1" fill="none" fill-rule="evenodd">
        <g id="logo_light" fill="#1A0434" fill-rule="nonzero">
            <rect id="Rectangle" transform="translate(49.477020, 49.033675) rotate(45.000000) translate(-49.477020, -49.033675) " x="48.7816494" y="-16.8753573" width="1.39074068" height="131.818064"></rect>
            <rect id="Rectangle" transform="translate(49.159009, 49.033417) rotate(135.000000) translate(-49.159009, -49.033417) " x="48.4636387" y="-16.8756152" width="1.39074068" height="131.818064"></rect>
            <polygon id="Path" points="58.5541 0.96 58.5541 15 55.1341 15 55.1341 6.22 52.0941 15 49.1341 15 46.0741 6.2 46.0741 15 42.6541 15 42.6541 0.96 46.8341 0.96 50.6541 10.74 54.3941 0.96"></polygon>
            <polygon id="Path" points="55.34 88.36 55.34 91.08 51.5 91.08 51.5 102.5 48.06 102.5 48.06 91.08 44.26 91.08 44.26 88.36"></polygon>
            <polygon id="Path" points="4.29629 44.61 4.29629 58.75 0.87629 58.75 0.87629 44.61"></polygon>
            <path d="M98.7696,54.77 C98.7696,55.5167 98.5763,56.2033 98.1896,56.83 C97.8163,57.4567 97.2563,57.9567 96.5096,58.33 C95.7763,58.7033 94.883,58.89 93.8296,58.89 C92.243,58.89 90.9363,58.5033 89.9096,57.73 C88.883,56.9567 88.323,55.8767 88.2296,54.49 L91.8696,54.49 C91.923,55.0233 92.1096,55.4433 92.4296,55.75 C92.763,56.0567 93.183,56.21 93.6896,56.21 C94.1296,56.21 94.4763,56.09 94.7296,55.85 C94.983,55.61 95.1096,55.29 95.1096,54.89 C95.1096,54.53 94.9896,54.23 94.7496,53.99 C94.523,53.75 94.2363,53.5567 93.8896,53.41 C93.543,53.25 93.063,53.0633 92.4496,52.85 C91.5563,52.5433 90.823,52.25 90.2496,51.97 C89.6896,51.6767 89.203,51.25 88.7896,50.69 C88.3896,50.1167 88.1896,49.3767 88.1896,48.47 C88.1896,47.63 88.403,46.9033 88.8296,46.29 C89.2563,45.6767 89.843,45.21 90.5896,44.89 C91.3496,44.5567 92.2163,44.39 93.1896,44.39 C94.763,44.39 96.0096,44.7633 96.9296,45.51 C97.863,46.2567 98.3896,47.2833 98.5096,48.59 L94.8096,48.59 C94.743,48.1233 94.5696,47.7567 94.2896,47.49 C94.023,47.21 93.6563,47.07 93.1896,47.07 C92.7896,47.07 92.463,47.1767 92.2096,47.39 C91.9696,47.6033 91.8496,47.9167 91.8496,48.33 C91.8496,48.6633 91.9563,48.95 92.1696,49.19 C92.3963,49.4167 92.6763,49.6033 93.0096,49.75 C93.343,49.8967 93.823,50.0833 94.4496,50.31 C95.3563,50.6167 96.0963,50.9233 96.6696,51.23 C97.243,51.5233 97.7363,51.9567 98.1496,52.53 C98.563,53.1033 98.7696,53.85 98.7696,54.77 Z" id="Path"></path>
        </g>
    </g>
</svg>