<svg viewBox="0 0 213 227" fill="none" xmlns="http://www.w3.org/2000/svg">
<g filter="url(#filter0_m)">
<rect width="3" height="249.524" rx="1.5" transform="matrix(0.7083 0.705911 -0.7083 0.705911 194 0)" fill="#FFBF00"/>
<rect width="3" height="249.524" rx="1.5" transform="matrix(-0.7083 0.705911 -0.7083 -0.705912 196 176)" fill="#FFBF00"/>
<path d="M121.902 0.988165V27.5776H115.425V11.6315L109.479 27.5776H104.252L98.2672 11.5937V27.5776H91.7903V0.988165H99.4414L106.903 19.3963L114.289 0.988165H121.902Z" fill="white"/>
<path d="M117.125 152.084V157.273H110.081V178.671H103.604V157.273H96.5601V152.084H117.125Z" fill="white"/>
<path d="M23.7545 76.5379V103.124H17.2783V76.5379H23.7545Z" fill="white"/>
<path d="M185.235 103.389C183.291 103.389 181.549 103.074 180.009 102.443C178.469 101.811 177.231 100.877 176.297 99.64C175.388 98.4028 174.909 96.9132 174.858 95.1711H181.751C181.852 96.1558 182.193 96.9132 182.773 97.4434C183.354 97.9484 184.112 98.2009 185.046 98.2009C186.005 98.2009 186.763 97.9863 187.318 97.557C187.874 97.1026 188.151 96.484 188.151 95.7013C188.151 95.0448 187.924 94.502 187.47 94.0728C187.04 93.6436 186.498 93.2901 185.841 93.0124C185.21 92.7346 184.301 92.419 183.114 92.0655C181.397 91.5353 179.996 91.0051 178.91 90.4749C177.825 89.9447 176.891 89.162 176.108 88.1268C175.325 87.0916 174.934 85.7409 174.934 84.0745C174.934 81.6002 175.83 79.6687 177.623 78.28C179.415 76.8661 181.751 76.1592 184.629 76.1592C187.558 76.1592 189.919 76.8661 191.711 78.28C193.504 79.6687 194.463 81.6128 194.59 84.1124H187.583C187.533 83.2539 187.217 82.5848 186.636 82.1051C186.056 81.6002 185.311 81.3477 184.402 81.3477C183.619 81.3477 182.988 81.5623 182.508 81.9915C182.029 82.3955 181.789 82.9888 181.789 83.7715C181.789 84.6299 182.193 85.299 183.001 85.7787C183.809 86.2585 185.071 86.776 186.788 87.3315C188.505 87.9122 189.893 88.4677 190.954 88.9979C192.04 89.5281 192.974 90.2982 193.756 91.3081C194.539 92.318 194.93 93.6183 194.93 95.2089C194.93 96.7238 194.539 98.0999 193.756 99.337C192.999 100.574 191.888 101.559 190.424 102.291C188.959 103.023 187.23 103.389 185.235 103.389Z" fill="white"/>
</g>
<defs>
<filter id="filter0_m" x="0" y="0" width="212.503" height="226.671" filterUnits="userSpaceOnUse" color-interpolation-filters="sRGB">
<feFlood flood-opacity="0" result="BackgroundImageFix"/>
<feColorMatrix in="SourceAlpha" type="matrix" values="0 0 0 0 0 0 0 0 0 0 0 0 0 0 0 0 0 0 127 0"/>
<feOffset dy="31"/>
<feGaussianBlur stdDeviation="8.5"/>
<feColorMatrix type="matrix" values="0 0 0 0 0 0 0 0 0 0 0 0 0 0 0 0 0 0 0.25 0"/>
<feBlend mode="normal" in2="BackgroundImageFix" result="effect1_dropShadow"/>
<feBlend mode="normal" in="SourceGraphic" in2="effect1_dropShadow" result="shape"/>
</filter>
</defs>
</svg>