<svg width="40" height="40" viewBox="0 0 40 40" fill="none" xmlns="http://www.w3.org/2000/svg">
    <path d="M0 4C0 1.79086 1.79086 0 4 0H36C38.2091 0 40 1.79086 40 4V36C40 38.2091 38.2091 40 36 40H4C1.79086 40 0 38.2091 0 36V4Z" fill="#FFBF00"/>
    <rect width="2.5" height="32.5" rx="1.25" transform="matrix(0.689992 0.723817 -0.689992 0.723817 30 7.5)" fill="#190134"/>
    <rect width="2.5" height="32.5" rx="1.25" transform="matrix(-0.689993 0.723816 0.689993 0.723816 10 7.5)" fill="#190134"/>
    <circle cx="20" cy="7.5" r="2.5" fill="#190134"/>
    <circle cx="32.5" cy="20" r="2.5" fill="#190134"/>
    <circle cx="7.5" cy="20" r="2.5" fill="#190134"/>
    <circle cx="20" cy="32.5" r="2.5" fill="#190134"/>
</svg>
