<svg width="32" height="36" viewBox="0 0 32 36" fill="none" xmlns="http://www.w3.org/2000/svg">
<path d="M31.6569 23.3068V4.5701C31.6569 1.56994 29.5484 0 27.4655 0C26.3524 0 25.3091 0.42307 24.5266 1.1906C23.9257 1.78024 23.2093 2.84477 23.2093 4.57017V10.1898C21.4834 9.31247 19.0067 9.67816 17.7188 11.3941C16.9401 10.7021 15.9211 10.3227 14.8366 10.3227C13.4781 10.3227 12.1085 10.9405 11.2829 12.1416C10.516 11.5232 9.52946 11.185 8.48433 11.185C6.33221 11.185 4.15323 12.667 4.15323 15.5V19.1831C1.84466 20.8788 0.343132 23.6118 0.343132 26.6894C0.343062 31.8236 4.51885 36 9.6518 36C14.7854 36 18.9612 31.8236 18.9605 26.6894C18.9605 21.5571 14.7848 17.3807 9.6518 17.3807C8.5299 17.3807 7.45376 17.5802 6.45694 17.9456V15.5C6.45694 14.0155 7.54897 13.4889 8.48427 13.4889C9.02588 13.4889 9.54254 13.6711 9.90198 13.9893C10.3025 14.3438 10.5054 14.8517 10.5054 15.4993C10.5054 16.1352 11.0214 16.6512 11.6573 16.6512C12.2931 16.6512 12.8091 16.1358 12.8091 15.4993V14.8342C12.8091 13.2043 13.9017 12.6265 14.8371 12.6265C15.3737 12.6265 15.8679 12.8131 16.2286 13.1525C16.6454 13.545 16.8569 14.1109 16.8569 14.8342C16.8569 15.47 17.3723 15.986 18.0088 15.986C18.6453 15.986 19.1613 15.4706 19.1613 14.8342V14.1684C19.1613 12.5816 20.2539 12.0187 21.1899 12.0187C21.7221 12.0187 22.2319 12.2078 22.5876 12.5373C23.0001 12.9185 23.2091 13.467 23.2091 14.1684C23.2091 14.8042 23.7245 15.3202 24.361 15.3202C24.9974 15.3202 25.5135 14.8049 25.5135 14.1684V4.5701C25.5135 3.00452 26.4938 2.30379 27.4659 2.30379C28.3364 2.30379 29.3529 2.89723 29.3529 4.5701V23.3061C29.3529 27.7722 26.7548 31.8237 22.7166 33.6956H16.9248C16.289 33.6956 15.7729 34.211 15.7729 34.8474C15.7729 35.4839 16.2892 36 16.9251 36H26.6862C27.322 36 27.8387 35.4846 27.8387 34.8481C27.8387 34.2832 27.4319 33.8141 26.8954 33.7155C29.8688 31.144 31.6569 27.3672 31.6569 23.3068ZM16.6568 26.6894C16.6568 30.5532 13.5137 33.6956 9.6518 33.6956C5.78989 33.6956 2.64685 30.5532 2.64685 26.6901C2.64685 22.827 5.78926 19.6851 9.6518 19.6851C13.5144 19.6851 16.6573 22.8269 16.6568 26.6894Z" fill="#2C2928"/>
</svg>
